<svg xmlns="http://www.w3.org/2000/svg" viewBox="0 0 128 128" width="128" height="128" role="img" aria-label="picopilot logo">
  <title>picopilot</title>
  <!--
    picopilot's mark: a chunky pixel FLOWER on a PICO-8 console screen. The
    fantasy-console frame (rounded dark-blue body, black screen) hosts a
    scalloped 6-petal bloom with a bright core, on a stem with two leaves - you
    plant a prompt, picopilot grows it into a game. Every colour is an exact
    PICO-8 palette entry (dark-blue 1, black 0, pink 14, peach 15, red 8,
    yellow 10, green 11, dark-green 3, light-grey 6), so the palette itself is
    the console signifier. Grid = 16px; flower centre at (64,56).
  -->
  <defs>
    <clipPath id="screen"><rect x="8" y="8" width="112" height="112" rx="18" /></clipPath>
  </defs>

  <!-- console body + screen -->
  <rect x="4" y="4" width="120" height="120" rx="24" fill="#1d2b53" />
  <rect x="8" y="8" width="112" height="112" rx="18" fill="#000000" />

  <g clip-path="url(#screen)">
    <rect x="8" y="8" width="112" height="112" fill="#1d2b53" opacity="0.25" />

    <!-- outer scalloped petals (pink 14) -->
    <rect x="56" y="24" width="16" height="16" fill="#ff77a8" />
    <rect x="32" y="32" width="16" height="16" fill="#ff77a8" />
    <rect x="80" y="32" width="16" height="16" fill="#ff77a8" />
    <rect x="32" y="64" width="16" height="16" fill="#ff77a8" />
    <rect x="80" y="64" width="16" height="16" fill="#ff77a8" />
    <rect x="56" y="72" width="16" height="16" fill="#ff77a8" />

    <!-- bloom mass (pink 14) -->
    <rect x="48" y="40" width="32" height="32" fill="#ff77a8" />
    <rect x="40" y="40" width="16" height="16" fill="#ff77a8" />
    <rect x="72" y="40" width="16" height="16" fill="#ff77a8" />
    <rect x="40" y="56" width="16" height="16" fill="#ff77a8" />
    <rect x="72" y="56" width="16" height="16" fill="#ff77a8" />

    <!-- inner glow (peach 15), core (red 8), eye (yellow 10) -->
    <rect x="52" y="44" width="24" height="24" fill="#ffccaa" />
    <rect x="54" y="46" width="20" height="20" fill="#ff004d" />
    <rect x="58" y="50" width="12" height="12" fill="#ffec27" />

    <!-- stem (green 11) + two leaves (dark-green 3) -->
    <rect x="56" y="88" width="16" height="24" fill="#00e436" />
    <rect x="40" y="94" width="16" height="10" fill="#008751" />
    <rect x="72" y="102" width="16" height="10" fill="#008751" />
  </g>

  <!-- screen bezel highlight (light-grey 6) -->
  <rect x="8" y="8" width="112" height="112" rx="18" fill="none" stroke="#c2c3c7" stroke-opacity="0.18" stroke-width="2" />
</svg>
